<?xml version="1.0" encoding="UTF-8" standalone="no"?>
<!-- Created with Inkscape (http://www.inkscape.org/) -->

<svg
   xmlns:osb="http://www.openswatchbook.org/uri/2009/osb"
   xmlns:dc="http://purl.org/dc/elements/1.1/"
   xmlns:cc="http://creativecommons.org/ns#"
   xmlns:rdf="http://www.w3.org/1999/02/22-rdf-syntax-ns#"
   xmlns:svg="http://www.w3.org/2000/svg"
   xmlns="http://www.w3.org/2000/svg"
   xmlns:sodipodi="http://sodipodi.sourceforge.net/DTD/sodipodi-0.dtd"
   xmlns:inkscape="http://www.inkscape.org/namespaces/inkscape"
   width="1800"
   height="2360"
   viewBox="0 0 1800 2359.9999"
   id="svg2"
   version="1.1"
   inkscape:version="0.91 r13725"
   sodipodi:docname="cover.svg"
   inkscape:export-filename="/home/kreis/senseBox/repos/books/osem/cover.png"
   inkscape:export-xdpi="90"
   inkscape:export-ydpi="90">
  <defs
     id="defs4">
    <linearGradient
       id="linearGradient4281"
       osb:paint="solid">
      <stop
         style="stop-color:#000000;stop-opacity:1;"
         offset="0"
         id="stop4283" />
    </linearGradient>
    <clipPath
       id="clipPath3372"
       clipPathUnits="userSpaceOnUse">
      <path
         inkscape:connector-curvature="0"
         id="path3374"
         d="M 1776.56,314.355 1577.99,115.773 1379.41,314.355 1577.99,512.93 1776.56,314.355" />
    </clipPath>
  </defs>
  <sodipodi:namedview
     id="base"
     pagecolor="#ffffff"
     bordercolor="#666666"
     borderopacity="1.0"
     inkscape:pageopacity="0.0"
     inkscape:pageshadow="2"
     inkscape:zoom="0.175"
     inkscape:cx="1199.2776"
     inkscape:cy="1154.0454"
     inkscape:document-units="px"
     inkscape:current-layer="layer1"
     showgrid="false"
     units="px"
     inkscape:window-width="1280"
     inkscape:window-height="736"
     inkscape:window-x="0"
     inkscape:window-y="27"
     inkscape:window-maximized="1"
     showguides="false" />
  <metadata
     id="metadata7">
    <rdf:RDF>
      <cc:Work
         rdf:about="">
        <dc:format>image/svg+xml</dc:format>
        <dc:type
           rdf:resource="http://purl.org/dc/dcmitype/StillImage" />
        <dc:title></dc:title>
      </cc:Work>
    </rdf:RDF>
  </metadata>
  <g
     inkscape:label="Layer 1"
     inkscape:groupmode="layer"
     id="layer1"
     transform="translate(0,1307.637)">
    <rect
       style="opacity:1;fill:#ffffff;fill-opacity:1;stroke:none;stroke-width:0.5;stroke-miterlimit:4;stroke-dasharray:none;stroke-opacity:1"
       id="rect4197"
       width="1800"
       height="2360"
       x="0"
       y="-1307.637"
       ry="0" />
    <flowRoot
       xml:space="preserve"
       id="flowRoot4146"
       style="fill:black;stroke:none;stroke-opacity:1;stroke-width:1px;stroke-linejoin:miter;stroke-linecap:butt;fill-opacity:1;font-family:sans-serif;font-style:normal;font-weight:normal;font-size:40px;line-height:125%;letter-spacing:0px;word-spacing:0px"><flowRegion
         id="flowRegion4148"><rect
           id="rect4150"
           width="1531.4286"
           height="582.85712"
           x="80"
           y="714.28571" /></flowRegion><flowPara
         id="flowPara4152"></flowPara></flowRoot>    <g
       transform="translate(-106.49258,-711.06519)"
       style="font-style:normal;font-weight:normal;font-size:137.5px;line-height:125%;font-family:sans-serif;letter-spacing:0px;word-spacing:0px;fill:#333333;fill-opacity:1;stroke:none;stroke-width:1px;stroke-linecap:butt;stroke-linejoin:miter;stroke-opacity:1"
       id="flowRoot4136-9">
      <path
         d="m 562.18291,442.8683 0,-74.25 -10.3125,0 0,-9.35 32.5875,0 q 13.2,0 22.1375,2.8875 8.9375,2.8875 14.025,8.9375 5.0875,6.05 7.15,14.4375 2.2,8.25 2.2,20.2125 0,11.825 -2.2,20.075 -2.0625,8.25 -7.15,14.4375 -5.0875,6.05 -14.025,9.075 -8.9375,2.8875 -22.1375,2.8875 l -32.5875,0 0,-9.35 10.3125,0 z m 10.725,0 12.7875,0 q 18.8375,0 25.9875,-8.525 7.15,-8.6625 7.15,-28.875 0,-19.8 -7.2875,-28.325 -7.2875,-8.525 -25.85,-8.525 l -12.7875,0 0,74.25 z"
         style="font-style:normal;font-variant:normal;font-weight:normal;font-stretch:normal;font-size:137.5px;line-height:139.99999762%;font-family:BrixSlab-Regular;-inkscape-font-specification:BrixSlab-Regular;text-align:center;text-anchor:middle;fill:#333333"
         id="path4479" />
      <path
         d="m 672.30967,388.1433 q 28.4625,0 28.4625,32.5875 0,33 -28.7375,33 -14.7125,0 -21.5875,-8.8 -6.7375,-8.8 -6.7375,-24.0625 0,-32.725 28.6,-32.725 z m 0,55.9625 q 9.625,0 13.475,-5.775 3.9875,-5.9125 3.9875,-17.4625 0,-11.6875 -3.9875,-17.325 -3.9875,-5.775 -13.6125,-5.775 -9.4875,0 -13.475,5.775 -3.9875,5.6375 -3.9875,17.1875 0,11.6875 3.9875,17.6 4.125,5.775 13.6125,5.775 z"
         style="font-style:normal;font-variant:normal;font-weight:normal;font-stretch:normal;font-size:137.5px;line-height:139.99999762%;font-family:BrixSlab-Regular;-inkscape-font-specification:BrixSlab-Regular;text-align:center;text-anchor:middle;fill:#333333"
         id="path4481" />
      <path
         d="m 756.45967,452.2183 0,-8.3875 -15.8125,-22.9625 -11.1375,9.4875 0,12.65 13.2,0 0,9.2125 -32.8625,0 0,-9.2125 9.4875,0 0,-77.1375 -10.175,0 0,-9.35 20.35,0 0,64.9 26.2625,-22.55 -10.45,0 0,-9.35 31.35,0 0,9.35 -9.35,0 -19.25,16.6375 19.525,27.5 12.375,0 0,9.2125 -23.5125,0 z"
         style="font-style:normal;font-variant:normal;font-weight:normal;font-stretch:normal;font-size:137.5px;line-height:139.99999762%;font-family:BrixSlab-Regular;-inkscape-font-specification:BrixSlab-Regular;text-align:center;text-anchor:middle;fill:#333333"
         id="path4483" />
      <path
         d="m 847.43525,389.5183 0,53.35 9.625,0 0,9.35 -18.2875,0 0,-10.0375 q -3.4375,4.675 -9.625,8.1125 -6.05,3.4375 -13.6125,3.4375 -10.725,0 -15.4,-5.9125 -4.5375,-5.9125 -4.5375,-18.2875 l 0,-30.8 -10.175,0 0,-9.2125 20.4875,0 0,39.1875 q 0,7.7 2.475,11.4125 2.6125,3.575 10.3125,3.575 5.775,0 10.8625,-2.75 5.225,-2.8875 7.5625,-6.875 l 0,-35.3375 -12.7875,0 0,-9.2125 23.1,0 z"
         style="font-style:normal;font-variant:normal;font-weight:normal;font-stretch:normal;font-size:137.5px;line-height:139.99999762%;font-family:BrixSlab-Regular;-inkscape-font-specification:BrixSlab-Regular;text-align:center;text-anchor:middle;fill:#333333"
         id="path4485" />
      <path
         d="m 865.7915,452.2183 0,-9.2125 9.075,0 0,-44.1375 -8.9375,0 0,-9.35 18.425,0 0,6.6 q 6.7375,-7.975 18.15,-7.975 11.9625,0 17.4625,8.9375 7.5625,-8.9375 20.625,-8.9375 10.725,0 15.125,5.775 4.5375,5.775 4.5375,17.6 l 0,31.4875 8.8,0 0,9.2125 -27.5,0 0,-9.2125 8.25,0 0,-30.8 q 0,-7.425 -2.3375,-10.725 -2.3375,-3.4375 -8.9375,-3.4375 -10.175,0 -15.4,6.4625 l 0,38.5 8.25,0 0,9.2125 -27.0875,0 0,-9.2125 8.3875,0 0,-37.95 q -3.4375,-7.0125 -12.65,-7.0125 -8.9375,0 -14.85,6.4625 l 0,38.5 8.25,0 0,9.2125 -27.6375,0 z"
         style="font-style:normal;font-variant:normal;font-weight:normal;font-stretch:normal;font-size:137.5px;line-height:139.99999762%;font-family:BrixSlab-Regular;-inkscape-font-specification:BrixSlab-Regular;text-align:center;text-anchor:middle;fill:#333333"
         id="path4487" />
      <path
         d="m 1006.7978,444.3808 q 10.3125,0 20.075,-6.7375 l 3.575,8.525 q -11,7.5625 -23.7875,7.5625 -14.85005,0 -21.72505,-8.8 -6.875,-8.8 -6.875,-24.2 0,-14.4375 7.0125,-23.5125 7.0125,-9.075 20.48755,-9.075 12.375,0 18.7,7.7 6.325,7.7 6.325,18.7 0,4.4 -0.825,9.625 l -40.70005,0 q 0.4125,20.2125 17.73755,20.2125 z m -17.60005,-28.4625 30.93755,0 q 0.275,-1.65 0.275,-2.75 0,-7.2875 -3.9875,-11.55 -3.9875,-4.4 -10.8625,-4.4 -15.12505,0 -16.36255,18.7 z"
         style="font-style:normal;font-variant:normal;font-weight:normal;font-stretch:normal;font-size:137.5px;line-height:139.99999762%;font-family:BrixSlab-Regular;-inkscape-font-specification:BrixSlab-Regular;text-align:center;text-anchor:middle;fill:#333333"
         id="path4489" />
      <path
         d="m 1042.2319,452.2183 0,-9.2125 9.075,0 0,-44.1375 -8.9375,0 0,-9.35 18.425,0 0,7.0125 q 7.8375,-8.3875 22,-8.3875 11.275,0 16.0875,5.9125 4.8125,5.775 4.8125,18.15 l 0,30.8 8.9375,0 0,9.2125 -29.8375,0 0,-9.2125 10.5875,0 0,-29.975 q 0,-7.7 -2.75,-11.275 -2.6125,-3.7125 -10.725,-3.7125 -5.225,0 -10.3125,1.925 -5.0875,1.925 -7.975,4.5375 l 0,38.5 10.45,0 0,9.2125 -29.8375,0 z"
         style="font-style:normal;font-variant:normal;font-weight:normal;font-stretch:normal;font-size:137.5px;line-height:139.99999762%;font-family:BrixSlab-Regular;-inkscape-font-specification:BrixSlab-Regular;text-align:center;text-anchor:middle;fill:#333333"
         id="path4491" />
      <path
         d="m 1138.9503,398.8683 0,35.475 q 0,9.4875 8.3875,9.4875 5.775,0 9.7625,-1.5125 l 1.1,9.2125 q -5.3625,2.2 -13.475,2.2 -8.25,0 -12.2375,-4.8125 -3.85,-4.95 -3.85,-13.475 l 0,-36.575 -11.9625,0 0,-7.975 11.9625,-1.375 0,-15.8125 10.3125,-1.925 0,17.7375 17.05,0 0,9.35 -17.05,0 z"
         style="font-style:normal;font-variant:normal;font-weight:normal;font-stretch:normal;font-size:137.5px;line-height:139.99999762%;font-family:BrixSlab-Regular;-inkscape-font-specification:BrixSlab-Regular;text-align:center;text-anchor:middle;fill:#333333"
         id="path4493" />
      <path
         d="m 1180.7288,400.1058 0,10.8625 -8.8,0 q -1.7875,-4.4 -1.7875,-9.2125 0,-6.1875 5.9125,-9.9 6.05,-3.7125 17.6,-3.7125 7.7,0 12.375,1.375 4.675,1.2375 7.0125,4.5375 2.3375,3.1625 3.025,7.15 0.825,3.85 0.825,10.5875 l 0,27.225 q 0,4.675 3.85,4.675 1.7875,0 4.8125,-0.55 l 0,9.2125 q -3.3,0.6875 -7.8375,0.6875 -4.8125,0 -7.7,-2.475 -2.75,-2.475 -3.025,-6.875 -8.25,10.0375 -21.45,10.0375 -9.35,0 -14.3,-4.675 -4.8125,-4.675 -4.8125,-12.925 0,-9.075 7.2875,-13.3375 7.2875,-4.4 21.5875,-5.9125 l 11,-1.375 0,-15.4 q -3.9875,-2.475 -12.65,-2.475 -8.1125,0 -12.925,2.475 z m -3.1625,35.3375 q 0,9.2125 10.5875,9.2125 10.5875,0 18.15,-7.5625 l 0,-14.1625 -10.725,1.5125 q -9.7625,1.375 -13.8875,3.85 -4.125,2.3375 -4.125,7.15 z"
         style="font-style:normal;font-variant:normal;font-weight:normal;font-stretch:normal;font-size:137.5px;line-height:139.99999762%;font-family:BrixSlab-Regular;-inkscape-font-specification:BrixSlab-Regular;text-align:center;text-anchor:middle;fill:#333333"
         id="path4495" />
      <path
         d="m 1252.2804,398.8683 0,35.475 q 0,9.4875 8.3875,9.4875 5.775,0 9.7625,-1.5125 l 1.1,9.2125 q -5.3625,2.2 -13.475,2.2 -8.25,0 -12.2375,-4.8125 -3.85,-4.95 -3.85,-13.475 l 0,-36.575 -11.9625,0 0,-7.975 11.9625,-1.375 0,-15.8125 10.3125,-1.925 0,17.7375 17.05,0 0,9.35 -17.05,0 z"
         style="font-style:normal;font-variant:normal;font-weight:normal;font-stretch:normal;font-size:137.5px;line-height:139.99999762%;font-family:BrixSlab-Regular;-inkscape-font-specification:BrixSlab-Regular;text-align:center;text-anchor:middle;fill:#333333"
         id="path4497" />
      <path
         d="m 1279.3464,452.2183 0,-9.2125 13.75,0 0,-44.1375 -13.75,0 0,-9.35 24.0625,0 0,53.4875 13.0625,0 0,9.2125 -37.125,0 z m 18.15,-78.2375 q -7.5625,0 -7.5625,-7.2875 0,-7.425 7.5625,-7.425 3.1625,0 5.225,1.925 2.2,1.7875 2.2,5.5 0,3.7125 -2.2,5.5 -2.0625,1.7875 -5.225,1.7875 z"
         style="font-style:normal;font-variant:normal;font-weight:normal;font-stretch:normal;font-size:137.5px;line-height:139.99999762%;font-family:BrixSlab-Regular;-inkscape-font-specification:BrixSlab-Regular;text-align:center;text-anchor:middle;fill:#333333"
         id="path4499" />
      <path
         d="m 1352.8272,388.1433 q 28.4625,0 28.4625,32.5875 0,33 -28.7375,33 -14.7125,0 -21.5875,-8.8 -6.7375,-8.8 -6.7375,-24.0625 0,-32.725 28.6,-32.725 z m 0,55.9625 q 9.625,0 13.475,-5.775 3.9875,-5.9125 3.9875,-17.4625 0,-11.6875 -3.9875,-17.325 -3.9875,-5.775 -13.6125,-5.775 -9.4875,0 -13.475,5.775 -3.9875,5.6375 -3.9875,17.1875 0,11.6875 3.9875,17.6 4.125,5.775 13.6125,5.775 z"
         style="font-style:normal;font-variant:normal;font-weight:normal;font-stretch:normal;font-size:137.5px;line-height:139.99999762%;font-family:BrixSlab-Regular;-inkscape-font-specification:BrixSlab-Regular;text-align:center;text-anchor:middle;fill:#333333"
         id="path4501" />
      <path
         d="m 1392.6958,452.2183 0,-9.2125 9.075,0 0,-44.1375 -8.9375,0 0,-9.35 18.425,0 0,7.0125 q 7.8375,-8.3875 22,-8.3875 11.275,0 16.0875,5.9125 4.8125,5.775 4.8125,18.15 l 0,30.8 8.9375,0 0,9.2125 -29.8375,0 0,-9.2125 10.5875,0 0,-29.975 q 0,-7.7 -2.75,-11.275 -2.6125,-3.7125 -10.725,-3.7125 -5.225,0 -10.3125,1.925 -5.0875,1.925 -7.975,4.5375 l 0,38.5 10.45,0 0,9.2125 -29.8375,0 z"
         style="font-style:normal;font-variant:normal;font-weight:normal;font-stretch:normal;font-size:137.5px;line-height:139.99999762%;font-family:BrixSlab-Regular;-inkscape-font-specification:BrixSlab-Regular;text-align:center;text-anchor:middle;fill:#333333"
         id="path4503" />
    </g>
    <g
       transform="translate(-88.549706,-1101.8273)"
       style="font-style:normal;font-weight:normal;font-size:40px;line-height:125%;font-family:sans-serif;letter-spacing:0px;word-spacing:0px;fill:#4eaf47;fill-opacity:1;stroke:none;stroke-width:1px;stroke-linecap:butt;stroke-linejoin:miter;stroke-opacity:1"
       id="flowRoot4136-9-0">
      <path
         d="m 352.07598,397.57398 q 23.8,0 34.85,13.3875 11.05,13.3875 11.05,36.975 0,51 -46.75,51 -23.5875,0 -34.85,-13.6 -11.05,-13.6 -11.05,-36.975 0,-50.7875 46.75,-50.7875 z m -17,72.675 q 5.1,6.8 16.7875,6.8 11.6875,0 16.3625,-6.8 4.8875,-6.8 4.8875,-21.8875 0,-15.3 -4.8875,-22.1 -4.675,-6.8 -16.7875,-6.8 -11.475,0 -16.3625,6.8 -4.8875,6.8 -4.8875,21.675 0,15.3 4.8875,22.3125 z"
         style="font-style:normal;font-variant:normal;font-weight:normal;font-stretch:normal;font-size:212.5px;font-family:BrixSlab-Bold;-inkscape-font-specification:BrixSlab-Bold;text-align:center;text-anchor:middle;fill:#4eaf47;fill-opacity:1"
         id="path4454" />
      <path
         d="m 466.81602,542.49898 -55.25,0 0,-19.3375 11.05,-2.975 0,-99.875 -13.8125,0 0,-20.6125 35.4875,0 0,10.8375 q 9.9875,-12.9625 26.775,-12.9625 19.975,0 30.3875,13.175 10.4125,13.175 10.4125,37.6125 0,24.225 -10.2,37.4 -10.2,13.175 -30.6,13.175 -15.725,0 -24.8625,-9.9875 l 0,32.9375 20.6125,0 0,20.6125 z m 20.1875,-94.1375 q 0,-13.6 -4.8875,-21.0375 -4.8875,-7.4375 -17,-7.4375 -11.6875,0 -18.9125,8.075 l 0,41.65 q 7.65,7.0125 18.9125,7.0125 12.1125,0 17,-7.4375 4.8875,-7.4375 4.8875,-20.825 z"
         style="font-style:normal;font-variant:normal;font-weight:normal;font-stretch:normal;font-size:212.5px;font-family:BrixSlab-Bold;-inkscape-font-specification:BrixSlab-Bold;text-align:center;text-anchor:middle;fill:#4eaf47;fill-opacity:1"
         id="path4456" />
      <path
         d="m 573.72676,477.89898 q 15.0875,0 29.1125,-8.2875 l 7.65,18.7 q -17,10.625 -36.975,10.625 -24.225,0 -35.9125,-13.6 -11.475,-13.8125 -11.475,-37.1875 0,-21.8875 11.475,-36.125 11.6875,-14.45 33.15,-14.45 20.6125,0 30.6,12.325 10.2,12.1125 10.2,29.5375 0,10.2 -1.7,16.575 l -58.65,0 q 0.425,10.4125 5.95,16.15 5.7375,5.7375 16.575,5.7375 z m -22.3125,-39.7375 36.975,0 q 0.2125,-1.275 0.2125,-2.975 0,-8.5 -5.1,-13.175 -5.1,-4.675 -12.75,-4.675 -17.85,0 -19.3375,20.825 z"
         style="font-style:normal;font-variant:normal;font-weight:normal;font-stretch:normal;font-size:212.5px;font-family:BrixSlab-Bold;-inkscape-font-specification:BrixSlab-Bold;text-align:center;text-anchor:middle;fill:#4eaf47;fill-opacity:1"
         id="path4458" />
      <path
         d="m 626.37363,496.59898 0,-20.4 12.5375,0 0,-55.8875 -12.1125,0 0,-20.6125 33.15,0 0,11.475 q 11.2625,-13.6 32.725,-13.6 32.725,0 32.725,38.25 l 0,40.375 12.325,0 0,20.4 -49.9375,0 0,-20.4 14.025,0 0,-37.825 q 0,-9.35 -4.0375,-13.8125 -4.0375,-4.675 -14.2375,-4.675 -11.9,0 -21.0375,7.225 l 0,49.0875 13.6,0 0,20.4 -49.725,0 z"
         style="font-style:normal;font-variant:normal;font-weight:normal;font-stretch:normal;font-size:212.5px;font-family:BrixSlab-Bold;-inkscape-font-specification:BrixSlab-Bold;text-align:center;text-anchor:middle;fill:#4eaf47;fill-opacity:1"
         id="path4460" />
      <path
         d="m 844.01016,360.81148 0,37.4 -21.25,0 -3.825,-24.225 q -9.35,-2.7625 -18.7,-2.7625 -9.9875,0 -15.5125,5.525 -5.525,5.525 -5.525,13.6 0,12.9625 14.45,18.275 l 20.825,7.4375 q 18.9125,6.8 26.5625,16.7875 7.8625,9.775 7.8625,25.075 0,16.15 -12.75,28.6875 -12.5375,12.325 -36.55,12.325 -26.9875,0 -47.3875,-9.9875 l -1.7,-38.675 21.25,0 5.525,24.8625 q 8.075,3.825 22.1,3.825 10.4125,0 16.3625,-5.1 6.1625,-5.3125 6.1625,-13.8125 0,-13.6 -14.025,-18.7 l -22.525,-8.075 q -18.0625,-6.5875 -25.5,-16.3625 -7.4375,-9.775 -7.4375,-25.5 0,-16.15 11.9,-28.475 11.9,-12.325 35.9125,-12.325 23.375,0 43.775,10.2 z"
         style="font-style:normal;font-variant:normal;font-weight:normal;font-stretch:normal;font-size:212.5px;font-family:BrixSlab-Bold;-inkscape-font-specification:BrixSlab-Bold;text-align:center;text-anchor:middle;fill:#4eaf47;fill-opacity:1"
         id="path4462" />
      <path
         d="m 911.15352,477.89898 q 15.0875,0 29.1125,-8.2875 l 7.65,18.7 q -17,10.625 -36.975,10.625 -24.225,0 -35.9125,-13.6 -11.475,-13.8125 -11.475,-37.1875 0,-21.8875 11.475,-36.125 11.6875,-14.45 33.15,-14.45 20.6125,0 30.6,12.325 10.2,12.1125 10.2,29.5375 0,10.2 -1.7,16.575 l -58.65,0 q 0.425,10.4125 5.95,16.15 5.7375,5.7375 16.575,5.7375 z m -22.3125,-39.7375 36.975,0 q 0.2125,-1.275 0.2125,-2.975 0,-8.5 -5.1,-13.175 -5.1,-4.675 -12.75,-4.675 -17.85,0 -19.3375,20.825 z"
         style="font-style:normal;font-variant:normal;font-weight:normal;font-stretch:normal;font-size:212.5px;font-family:BrixSlab-Bold;-inkscape-font-specification:BrixSlab-Bold;text-align:center;text-anchor:middle;fill:#4eaf47;fill-opacity:1"
         id="path4464" />
      <path
         d="m 963.80039,496.59898 0,-20.4 12.5375,0 0,-55.8875 -12.1125,0 0,-20.6125 33.15,0 0,11.475 q 11.26251,-13.6 32.72501,-13.6 32.725,0 32.725,38.25 l 0,40.375 12.325,0 0,20.4 -49.9375,0 0,-20.4 14.025,0 0,-37.825 q 0,-9.35 -4.0375,-13.8125 -4.0375,-4.675 -14.2375,-4.675 -11.9,0 -21.03751,7.225 l 0,49.0875 13.60001,0 0,20.4 -49.72501,0 z"
         style="font-style:normal;font-variant:normal;font-weight:normal;font-stretch:normal;font-size:212.5px;font-family:BrixSlab-Bold;-inkscape-font-specification:BrixSlab-Bold;text-align:center;text-anchor:middle;fill:#4eaf47;fill-opacity:1"
         id="path4466" />
      <path
         d="m 1160.8244,403.73648 0,26.1375 -18.7,0 -2.7625,-12.9625 q -5.95,-2.3375 -13.3875,-2.3375 -5.95,0 -9.1375,2.975 -3.1875,2.975 -3.1875,7.225 0,7.4375 8.925,10.4125 l 15.3,4.675 q 13.6,4.25 19.975,11.2625 6.5875,7.0125 6.5875,18.0625 0,12.5375 -9.775,21.25 -9.5625,8.5 -30.3875,8.5 -20.4,0 -36.55,-6.5875 l -1.7,-27.625 18.7,0 4.25,14.45 q 5.95,2.975 15.0875,2.975 6.375,0 9.9875,-2.55 3.6125,-2.7625 3.6125,-7.65 0,-7.225 -9.35,-10.4125 l -16.15,-5.1 q -24.8625,-7.65 -24.8625,-28.9 0,-12.1125 9.1375,-21.0375 9.1375,-8.925 29.5375,-8.925 20.6125,0 34.85,6.1625 z"
         style="font-style:normal;font-variant:normal;font-weight:normal;font-stretch:normal;font-size:212.5px;font-family:BrixSlab-Bold;-inkscape-font-specification:BrixSlab-Bold;text-align:center;text-anchor:middle;fill:#4eaf47;fill-opacity:1"
         id="path4468" />
      <path
         d="m 1226.1682,477.89898 q 15.0875,0 29.1125,-8.2875 l 7.65,18.7 q -17,10.625 -36.975,10.625 -24.225,0 -35.9125,-13.6 -11.475,-13.8125 -11.475,-37.1875 0,-21.8875 11.475,-36.125 11.6875,-14.45 33.15,-14.45 20.6125,0 30.6,12.325 10.2,12.1125 10.2,29.5375 0,10.2 -1.7,16.575 l -58.65,0 q 0.425,10.4125 5.95,16.15 5.7375,5.7375 16.575,5.7375 z m -22.3125,-39.7375 36.975,0 q 0.2125,-1.275 0.2125,-2.975 0,-8.5 -5.1,-13.175 -5.1,-4.675 -12.75,-4.675 -17.85,0 -19.3375,20.825 z"
         style="font-style:normal;font-variant:normal;font-weight:normal;font-stretch:normal;font-size:212.5px;font-family:BrixSlab-Bold;-inkscape-font-specification:BrixSlab-Bold;text-align:center;text-anchor:middle;fill:#4eaf47;fill-opacity:1"
         id="path4470" />
      <path
         d="m 1368.2775,468.12398 31.45,-115.175 50.15,0 0,20.6125 -13.8125,0 11.2625,102.425 15.0875,0 0,20.6125 -55.4625,0 0,-20.6125 17,0 -9.9875,-95.625 -32.725,116.2375 -26.9875,0 -30.8125,-115.3875 -11.05,94.775 18.0625,0 0,20.6125 -55.675,0 0,-20.6125 14.025,0 12.325,-102.425 -14.025,0 0,-20.6125 51.2125,0 29.9625,115.175 z"
         style="font-style:normal;font-variant:normal;font-weight:normal;font-stretch:normal;font-size:212.5px;font-family:BrixSlab-Bold;-inkscape-font-specification:BrixSlab-Bold;text-align:center;text-anchor:middle;fill:#4eaf47;fill-opacity:1"
         id="path4472" />
      <path
         d="m 1501.2959,420.09898 0,13.8125 -20.825,0 q -3.1875,-6.1625 -3.1875,-13.175 0,-10.4125 9.775,-16.7875 9.9875,-6.375 29.325,-6.375 21.675,0 30.175,7.8625 8.7125,7.65 8.7125,28.2625 l 0,37.6125 q 0,5.7375 5.525,5.7375 3.1875,0 5.7375,-0.6375 l 0,20.1875 q -5.95,1.275 -13.8125,1.275 -17.85,0 -19.975,-14.875 -10.8375,15.9375 -31.875,15.9375 -13.6,0 -21.4625,-7.4375 -7.65,-7.4375 -7.65,-20.4 0,-15.0875 11.9,-21.675 11.9,-6.8 35.275,-8.5 l 12.1125,-1.275 0,-19.55 q -4.8875,-1.275 -14.6625,-1.275 -8.5,0 -15.0875,1.275 z m -4.25,49.0875 q 0,9.9875 11.6875,9.9875 12.5375,0 22.3125,-8.925 l 0,-14.875 -12.1125,1.4875 q -12.5375,1.4875 -17.2125,4.25 -4.675,2.7625 -4.675,8.075 z"
         style="font-style:normal;font-variant:normal;font-weight:normal;font-stretch:normal;font-size:212.5px;font-family:BrixSlab-Bold;-inkscape-font-specification:BrixSlab-Bold;text-align:center;text-anchor:middle;fill:#4eaf47;fill-opacity:1"
         id="path4474" />
      <path
         d="m 1632.2457,542.49898 -55.25,0 0,-19.3375 11.05,-2.975 0,-99.875 -13.8125,0 0,-20.6125 35.4875,0 0,10.8375 q 9.9875,-12.9625 26.775,-12.9625 19.975,0 30.3875,13.175 10.4125,13.175 10.4125,37.6125 0,24.225 -10.2,37.4 -10.2,13.175 -30.6,13.175 -15.725,0 -24.8625,-9.9875 l 0,32.9375 20.6125,0 0,20.6125 z m 20.1875,-94.1375 q 0,-13.6 -4.8875,-21.0375 -4.8875,-7.4375 -17,-7.4375 -11.6875,0 -18.9125,8.075 l 0,41.65 q 7.65,7.0125 18.9125,7.0125 12.1125,0 17,-7.4375 4.8875,-7.4375 4.8875,-20.825 z"
         style="font-style:normal;font-variant:normal;font-weight:normal;font-stretch:normal;font-size:212.5px;font-family:BrixSlab-Bold;-inkscape-font-specification:BrixSlab-Bold;text-align:center;text-anchor:middle;fill:#4eaf47;fill-opacity:1"
         id="path4476" />
    </g>
    <g
       transform="matrix(2.8124171,0,0,-2.8124171,351.74262,701.07409)"
       inkscape:label="ink_ext_XXXXXX"
       id="g3344">
      <g
         id="g4162">
        <path
           inkscape:connector-curvature="0"
           id="path3354"
           style="fill:#4ebe4b;fill-opacity:1;fill-rule:nonzero;stroke:none"
           d="m 236.25729,25.809652 c -9.41744,8.915872 -22.084,14.430114 -36.05095,14.430465 -14.08981,3.52e-4 -26.84929,-5.570861 -36.27475,-14.569288 l 36.08553,-36.086939 36.2403,36.225907" />
        <path
           inkscape:connector-curvature="0"
           id="path3356"
           style="fill:#fff200;fill-opacity:1;fill-rule:nonzero;stroke:none"
           d="m 200.30182,117.74887 c -11.35741,2.9e-4 -21.85074,3.73524 -30.34036,10.00385 l 30.06823,30.06865 30.3324,-30.33324 c -8.44695,-6.11398 -18.82147,-9.73954 -30.06027,-9.73926" />
        <path
           inkscape:connector-curvature="0"
           id="path3358"
           style="fill:#45beed;fill-opacity:1;fill-rule:nonzero;stroke:none"
           d="m 196.62929,105.2736 c 0.52962,-3.27507 -1.68587,-6.326391 -4.93931,-6.839326 -3.25343,-0.519279 -6.31206,1.699746 -6.82474,4.933296 -0.52961,3.26321 1.68588,6.32428 4.93932,6.83551 3.24919,0.53284 6.31207,-1.68788 6.82473,-4.92948" />
        <path
           inkscape:connector-curvature="0"
           id="path3360"
           style="fill:#45beed;fill-opacity:1;fill-rule:nonzero;stroke:none"
           d="m 196.62993,80.152143 c 0.53808,-3.256854 -1.68588,-6.317921 -4.93931,-6.825761 -3.25344,-0.539623 -6.3036,1.684495 -6.82474,4.926516 -0.52962,3.264901 1.68587,6.32597 4.93083,6.838898 3.25768,0.531147 6.32055,-1.686193 6.83322,-4.939653" />
        <path
           inkscape:connector-curvature="0"
           id="path3362"
           style="fill:#45beed;fill-opacity:1;fill-rule:nonzero;stroke:none"
           d="m 216.02407,58.889433 c 0.51267,-3.247108 -1.68587,-6.308171 -4.95625,-6.834233 -3.25768,-0.50785 -6.30361,1.696353 -6.82475,4.944733 -0.52962,3.263205 1.68587,6.312834 4.93931,6.833817 3.25344,0.532839 6.3036,-1.689583 6.84169,-4.944317" />
        <path
           inkscape:connector-curvature="0"
           id="path3364"
           style="fill:#45beed;fill-opacity:1;fill-rule:nonzero;stroke:none"
           d="m 221.97942,92.07404 c 0.52114,-3.236517 -1.68588,-6.29801 -4.94779,-6.824072 -3.24919,-0.53114 -6.3036,1.687887 -6.83321,4.94474 -0.52962,3.251766 1.69859,6.312837 4.93931,6.834234 3.2619,0.524367 6.31208,-1.696353 6.84169,-4.954902" />
        <path
           inkscape:connector-curvature="0"
           id="path3366"
           style="fill:#45beed;fill-opacity:1;fill-rule:nonzero;stroke:none"
           d="m 254.26095,43.693851 -10.90039,10.891908 11.28511,11.285536 -22.57927,5.73e-4 -7.81588,7.824367 7.59542,7.60009 23.00713,-5.81e-4 -11.50172,11.517849 10.91234,10.892857 29.8791,-29.879533 -29.88183,-30.133049" />
        <g
           id="g3368"
           transform="matrix(0.42362617,-1.0656099e-5,-1.0656099e-5,0.42362617,-468.45117,-59.452381)">
          <g
             clip-path="url(#clipPath3372)"
             id="g3370">
            <path
               inkscape:connector-curvature="0"
               id="path3376"
               style="fill:#4abeea;fill-opacity:1;fill-rule:nonzero;stroke:none"
               d="m 1413.79,344.719 -8.58,-8.582 c 6.05,-6.059 9.02,-13.887 9.04,-21.824 -0.02,-7.938 -2.99,-15.758 -9.02,-21.797 -6.06,-6.043 -13.89,-9.02 -21.82,-9.036 -7.95,0.016 -15.78,2.993 -21.84,9.047 -6.04,6.047 -9.02,13.871 -9.03,21.805 0.01,7.934 2.99,15.754 9.03,21.805 l 0.31,0.304 -0.32,-0.308 c 6.07,6.047 13.9,9.027 21.84,9.039 7.94,-0.016 15.76,-2.984 21.8,-9.031 l 0.01,-0.004 8.58,8.582 8.58,8.574 c -10.72,10.75 -24.9,16.164 -38.97,16.148 -14.07,0.016 -28.25,-5.406 -38.99,-16.136 l 0.32,0.316 -0.32,-0.324 c -10.74,-10.727 -16.15,-24.902 -16.14,-38.965 -0.01,-14.062 5.4,-28.238 16.14,-38.969 10.74,-10.746 24.93,-16.168 39,-16.152 14.07,-0.012 28.24,5.406 38.98,16.141 10.73,10.722 16.14,24.894 16.13,38.961 0.01,14.062 -5.4,28.246 -16.15,38.984 l 0.32,-0.317 -0.32,0.313 -8.58,-8.574" />
            <path
               inkscape:connector-curvature="0"
               id="path3378"
               style="fill:#4abeea;fill-opacity:1;fill-rule:nonzero;stroke:none"
               d="m 1444.18,375.129 -8.58,-8.582 c 14.45,-14.457 21.62,-33.277 21.63,-52.215 -0.01,-18.937 -7.19,-37.762 -21.63,-52.215 -14.44,-14.429 -33.28,-21.609 -52.22,-21.625 -18.93,0.016 -37.75,7.18 -52.2,21.625 -14.45,14.453 -21.61,33.266 -21.63,52.188 0.02,18.937 7.2,37.761 21.65,52.215 14.46,14.453 33.28,21.632 52.22,21.648 18.92,-0.016 37.72,-7.18 52.18,-21.621 l 8.58,8.582 8.58,8.582 c -19.13,19.129 -44.29,28.738 -69.34,28.727 -25.08,0.011 -50.26,-9.618 -69.38,-28.754 -19.14,-19.121 -28.77,-44.305 -28.76,-69.379 -0.01,-25.055 9.6,-50.223 28.74,-69.352 19.13,-19.137 44.3,-28.742 69.36,-28.73 25.08,-0.012 50.26,9.605 69.38,28.73 19.13,19.129 28.76,44.309 28.74,69.379 0.02,25.066 -9.6,50.246 -28.74,69.379 l -8.58,-8.582" />
            <path
               inkscape:connector-curvature="0"
               id="path3380"
               style="fill:#4abeea;fill-opacity:1;fill-rule:nonzero;stroke:none"
               d="m 1474.57,405.523 -8.58,-8.582 c 22.85,-22.851 34.22,-52.664 34.23,-82.589 -0.01,-29.942 -11.4,-59.778 -34.23,-82.625 -22.84,-22.832 -52.67,-34.207 -82.61,-34.219 -29.92,0.012 -59.74,11.375 -82.59,34.219 -22.84,22.839 -34.2,52.644 -34.22,82.566 0.02,29.945 11.4,59.781 34.24,82.637 22.84,22.832 52.67,34.211 82.61,34.222 29.92,-0.011 59.73,-11.371 82.57,-34.211 l 0,0 8.58,8.582 8.58,8.579 c -27.51,27.535 -63.68,41.336 -99.73,41.324 -36.07,0.012 -72.25,-13.813 -99.77,-41.336 -27.54,-27.527 -41.36,-63.719 -41.35,-99.797 -0.01,-36.051 13.79,-72.219 41.33,-99.73 27.52,-27.536 63.7,-41.34 99.75,-41.329 36.07,-0.011 72.25,13.809 99.77,41.329 27.53,27.527 41.35,63.71 41.34,99.789 0.02,36.054 -13.79,72.23 -41.34,99.753 l 0.45,-0.449 -0.45,0.446 -8.58,-8.579" />
            <path
               inkscape:connector-curvature="0"
               id="path3382"
               style="fill:#45beed;fill-opacity:1;fill-rule:nonzero;stroke:none"
               d="m 1395.06,317.23 c 1.37,-8.496 -4.38,-16.41 -12.83,-17.746 -8.44,-1.359 -16.37,4.414 -17.72,12.797 -1.37,8.465 4.4,16.41 12.83,17.735 8.44,1.375 16.37,-4.375 17.72,-12.786" />
          </g>
        </g>
      </g>
    </g>
    <g
       id="layer1-1"
       inkscape:label="Layer 1"
       transform="matrix(2.1860563,0,0,2.1860563,1497.5269,925.01487)">
      <g
         inkscape:export-ydpi="300.23013"
         inkscape:export-xdpi="300.23013"
         inkscape:export-filename="/mnt/hgfs/Bov/Documents/Work/2007/cc/identity/srr buttons/big/by-sa.png"
         id="g287"
         transform="matrix(0.9937807,0,0,0.9936694,-177.69409,-74.436409)">
        <path
           style="fill:#aab2ab"
           d="m 182.23532,75.39014 114.06396,0.20312 c 1.59375,0 3.01758,-0.23682 3.01758,3.18018 l -0.13965,37.56689 -119.82031,0 0,-37.70654 c 0,-1.68457 0.16309,-3.24365 2.87842,-3.24365 z"
           nodetypes="ccccccc"
           id="path3817_2_"
           inkscape:connector-curvature="0" />
        <g
           transform="matrix(0.872921,0,0,0.872921,50.12536,143.2144)"
           id="g5908_2_">
          <path
             style="fill:#ffffff"
             d="m 187.20944,-55.6792 c 0.006,8.68024 -7.02786,15.72095 -15.7081,15.72708 -8.68021,0.005 -15.72205,-7.02786 -15.72708,-15.70804 0,-0.0067 0,-0.01233 0,-0.01904 -0.005,-8.68134 7.02783,-15.72205 15.70807,-15.72711 8.68134,-0.0056 15.72208,7.02789 15.72711,15.70807 0,0.0056 0,0.01233 0,0.01904 z"
             rx="22.939548"
             type="arc"
             cy="264.3577"
             ry="22.939548"
             cx="296.35416"
             id="path5906_2_"
             inkscape:connector-curvature="0" />
          <g
             transform="translate(-289.6157,99.0653)"
             id="g5706_2_">
            <path
               d="m 473.88455,-167.54724 c 3.48541,3.48596 5.22839,7.75391 5.22839,12.80273 0,5.04938 -1.7128,9.27148 -5.13834,12.66736 -3.63531,3.5766 -7.93179,5.36432 -12.88947,5.36432 -4.89777,0 -9.11987,-1.77261 -12.6651,-5.31955 -3.54584,-3.54581 -5.31845,-7.78299 -5.31845,-12.71213 0,-4.92859 1.77261,-9.19598 5.31845,-12.80273 3.4552,-3.48651 7.67725,-5.22894 12.6651,-5.22894 5.04829,0 9.31401,1.74243 12.79942,5.22894 z m -23.11798,2.34485 c -2.94675,2.97638 -4.41956,6.46289 -4.41956,10.46234 0,3.99835 1.45828,7.4552 4.37424,10.37067 2.91653,2.9165 6.38849,4.37476 10.41705,4.37476 4.02853,0 7.53018,-1.47281 10.50656,-4.41901 2.8259,-2.73584 4.23941,-6.17706 4.23941,-10.32642 0,-4.11804 -1.43646,-7.61292 -4.30768,-10.48474 -2.87064,-2.87067 -6.34988,-4.30652 -10.43829,-4.30652 -4.08837,0 -7.54638,1.44318 -10.37173,4.32892 z m 7.75449,8.70312 c -0.45032,-0.98163 -1.12433,-1.47223 -2.02325,-1.47223 -1.58914,0 -2.38342,1.06952 -2.38342,3.2085 0,2.13959 0.79428,3.20911 2.38342,3.20911 1.04938,0 1.79895,-0.5213 2.24866,-1.56512 l 2.20276,1.17303 c -1.04993,1.86548 -2.62506,2.79901 -4.72549,2.79901 -1.6199,0 -2.91763,-0.4967 -3.89206,-1.48956 -0.97607,-0.99341 -1.46274,-2.36273 -1.46274,-4.10797 0,-1.71558 0.50229,-3.07709 1.50748,-4.08563 1.00519,-1.00793 2.25705,-1.51251 3.75781,-1.51251 2.22012,0 3.80984,0.87488 4.77081,2.62286 l -2.38398,1.22051 z m 10.36334,0 c -0.45087,-0.98163 -1.11148,-1.47223 -1.98239,-1.47223 -1.62106,0 -2.43213,1.06952 -2.43213,3.2085 0,2.13959 0.81107,3.20911 2.43213,3.20911 1.05103,0 1.78717,-0.5213 2.20724,-1.56512 l 2.25201,1.17303 c -1.04825,1.86548 -2.62119,2.79901 -4.71768,2.79901 -1.61771,0 -2.91263,-0.4967 -3.88647,-1.48956 -0.97217,-0.99341 -1.45938,-2.36273 -1.45938,-4.10797 0,-1.71558 0.49448,-3.07709 1.48288,-4.08563 0.98782,-1.00793 2.24527,-1.51251 3.77347,-1.51251 2.21619,0 3.80368,0.87488 4.76132,2.62286 l -2.431,1.22051 z"
               id="path5708_2_"
               inkscape:connector-curvature="0" />
          </g>
        </g>
        <path
           id="path294"
           d="m 297.29639,74.91064 -116.22951,0 c -1.24658,0 -2.26074,1.01465 -2.26074,2.26123 l 0,39.49561 c 0,0.28174 0.22852,0.51074 0.51025,0.51074 l 119.73,0 c 0.28174,0 0.51074,-0.229 0.51074,-0.51074 l 0,-39.4956 c 0,-1.24659 -1.01416,-2.26124 -2.26074,-2.26124 z m -116.22951,1.02149 116.22951,0 c 0.68359,0 1.23926,0.55615 1.23926,1.23975 0,0 0,15.91943 0,27.41846 l -83.07375,0 c -3.04492,5.50537 -8.91113,9.24365 -15.64355,9.24365 -6.73535,0 -12.6001,-3.73486 -15.64355,-9.24365 l -4.34814,0 c 0,-11.49902 0,-27.41846 0,-27.41846 -2e-5,-0.6836 0.55663,-1.23975 1.24022,-1.23975 z"
           inkscape:connector-curvature="0" />
        <g
           id="g296"
           enable-background="new    ">
          <path
             style="fill:#ffffff"
             id="path298"
             d="m 265.60986,112.8833 c 0.0801,0.15576 0.1875,0.28174 0.32129,0.37842 0.13379,0.0962 0.29004,0.16797 0.46973,0.21436 0.18066,0.0469 0.36719,0.0703 0.55957,0.0703 0.12988,0 0.26953,-0.0107 0.41895,-0.0327 0.14844,-0.0215 0.28809,-0.064 0.41895,-0.12598 0.12988,-0.062 0.23926,-0.14795 0.3252,-0.25684 0.0879,-0.10889 0.13086,-0.24707 0.13086,-0.41553 0,-0.18018 -0.0576,-0.32617 -0.17285,-0.43848 -0.11426,-0.1123 -0.26562,-0.20508 -0.45215,-0.28027 -0.18555,-0.0742 -0.39746,-0.13965 -0.63281,-0.1958 -0.23633,-0.0562 -0.47559,-0.11816 -0.71777,-0.18701 -0.24902,-0.062 -0.49121,-0.13818 -0.72754,-0.22852 -0.23535,-0.0898 -0.44727,-0.20703 -0.63379,-0.3501 -0.18652,-0.14307 -0.33691,-0.32178 -0.45215,-0.53662 -0.11426,-0.21484 -0.17188,-0.47461 -0.17188,-0.7793 0,-0.34277 0.0732,-0.63965 0.21875,-0.8916 0.14648,-0.25195 0.33789,-0.46191 0.57422,-0.63037 0.23535,-0.16797 0.50293,-0.29248 0.80176,-0.37354 0.29785,-0.0806 0.59668,-0.12109 0.89453,-0.12109 0.34863,0 0.68262,0.0391 1.00293,0.11719 0.31934,0.0776 0.60449,0.2041 0.85254,0.37842 0.24902,0.17432 0.44629,0.39697 0.59277,0.66797 0.14551,0.271 0.21875,0.59961 0.21875,0.98535 l -1.42188,0 c -0.0127,-0.19922 -0.0547,-0.36426 -0.125,-0.49463 -0.0713,-0.13086 -0.16602,-0.2334 -0.2832,-0.30859 -0.11816,-0.0742 -0.25293,-0.12744 -0.4043,-0.1582 -0.15234,-0.0312 -0.31738,-0.0469 -0.49707,-0.0469 -0.11719,0 -0.23535,0.0127 -0.35254,0.0371 -0.11816,0.0254 -0.22461,0.0688 -0.32031,0.13086 -0.0967,0.0625 -0.17578,0.14014 -0.2373,0.2334 -0.0615,0.0937 -0.0928,0.21191 -0.0928,0.35498 0,0.13086 0.0244,0.23682 0.0742,0.31738 0.0498,0.0811 0.14844,0.15576 0.29395,0.22412 0.14551,0.0684 0.34766,0.13721 0.60547,0.20557 0.25781,0.0684 0.59473,0.15576 1.01172,0.26123 0.12402,0.0249 0.2959,0.0703 0.5166,0.13574 0.2207,0.0654 0.43945,0.16943 0.65723,0.3125 0.21777,0.14355 0.40527,0.33496 0.56445,0.57422 0.1582,0.23975 0.2373,0.54639 0.2373,0.91992 0,0.30518 -0.0596,0.58838 -0.17773,0.84961 -0.11816,0.26172 -0.29395,0.4873 -0.52734,0.67676 -0.2334,0.19043 -0.52246,0.33789 -0.86719,0.44385 -0.3457,0.10596 -0.74609,0.15869 -1.19922,0.15869 -0.36719,0 -0.72363,-0.0454 -1.06934,-0.13574 -0.34473,-0.0903 -0.65039,-0.23242 -0.91504,-0.42578 -0.26367,-0.19336 -0.47363,-0.43994 -0.62988,-0.73877 -0.15527,-0.29932 -0.22949,-0.65381 -0.22363,-1.06494 l 1.42188,0 c -3e-5,0.22412 0.04,0.41406 0.12106,0.56933 z"
             inkscape:connector-curvature="0" />
          <path
             style="fill:#ffffff"
             id="path300"
             d="m 273.8667,107.8667 2.49316,6.66406 -1.52246,0 -0.50391,-1.48438 -2.49316,0 -0.52246,1.48438 -1.47461,0 2.52051,-6.66406 1.50293,0 z m 0.084,4.08594 -0.83984,-2.44336 -0.0186,0 -0.86914,2.44336 1.72753,0 z"
             inkscape:connector-curvature="0" />
        </g>
        <g
           id="g302"
           enable-background="new    ">
          <path
             style="fill:#ffffff"
             id="path304"
             d="m 239.17821,107.8667 c 0.31738,0 0.60742,0.0283 0.86914,0.084 0.26172,0.0561 0.48633,0.14795 0.67383,0.27539 0.18652,0.12744 0.33203,0.29688 0.43457,0.5083 0.10254,0.21142 0.1543,0.47266 0.1543,0.78369 0,0.33594 -0.0762,0.61523 -0.22949,0.83936 -0.15234,0.22412 -0.37891,0.40723 -0.67773,0.55029 0.41211,0.11816 0.71973,0.3252 0.92285,0.62109 0.20312,0.29589 0.30469,0.65234 0.30469,1.06934 0,0.33594 -0.0654,0.62695 -0.19629,0.87305 -0.13086,0.24561 -0.30762,0.44629 -0.52832,0.60205 -0.22168,0.15576 -0.47461,0.271 -0.75781,0.34521 -0.28418,0.0752 -0.5752,0.1123 -0.875,0.1123 l -3.23633,0 0,-6.66406 3.14159,0 0,1e-5 z m -0.1875,2.69531 c 0.26172,0 0.47656,-0.062 0.64551,-0.18604 0.16797,-0.12451 0.25195,-0.32568 0.25195,-0.60498 0,-0.15527 -0.0283,-0.28271 -0.084,-0.38184 -0.0566,-0.0996 -0.13086,-0.17676 -0.22461,-0.23291 -0.0937,-0.0557 -0.20117,-0.0947 -0.32227,-0.11621 -0.12207,-0.022 -0.24805,-0.0327 -0.37891,-0.0327 l -1.37305,0 0,1.55469 1.48536,0 z m 0.0859,2.82813 c 0.14355,0 0.28027,-0.0137 0.41113,-0.042 0.13086,-0.0278 0.24707,-0.0747 0.34668,-0.13965 0.0996,-0.0654 0.17871,-0.1543 0.23828,-0.26611 0.0596,-0.11181 0.0889,-0.25488 0.0889,-0.4292 0,-0.3418 -0.0967,-0.58594 -0.29004,-0.73193 -0.19336,-0.14599 -0.44922,-0.21924 -0.7666,-0.21924 l -1.59961,0 0,1.82812 1.57129,0 z"
             inkscape:connector-curvature="0" />
          <path
             style="fill:#ffffff"
             id="path306"
             d="m 241.88914,107.8667 1.64355,0 1.56055,2.63184 1.55078,-2.63184 1.63379,0 -2.47363,4.10645 0,2.55762 -1.46875,0 0,-2.59473 -2.44629,-4.06934 z"
             inkscape:connector-curvature="0" />
        </g>
        <g
           transform="matrix(0.624995,0,0,0.624995,391.2294,176.9332)"
           id="g6316_1_">
          <path
             style="fill:#ffffff"
             d="m -175.0083,-139.1153 c 0.006,9.4118 -7.61725,17.04779 -17.02982,17.05481 -9.41101,0.007 -17.047,-7.61725 -17.05481,-17.02979 0,-0.008 0,-0.0172 0,-0.025 -0.006,-9.41254 7.6188,-17.047 17.02982,-17.05481 9.41257,-0.007 17.04855,7.61804 17.05481,17.02985 0,0.009 0,0.0164 0,0.025 z"
             rx="29.209877"
             type="arc"
             cy="252.08646"
             ry="29.209877"
             cx="475.97119"
             id="path6318_1_"
             inkscape:connector-curvature="0" />
          <g
             transform="translate(-23.9521,-89.72962)"
             id="g6320_1_">
            <path
               d="m -168.2204,-68.05536 c -5.17194,0 -9.54852,1.80469 -13.13135,5.41333 -3.67661,3.73444 -5.51413,8.1532 -5.51413,13.25635 0,5.10315 1.83752,9.49152 5.51413,13.1626 3.67502,3.67194 8.05316,5.50787 13.13135,5.50787 5.14066,0 9.59537,-1.85156 13.36728,-5.55475 3.55005,-3.51562 5.3266,-7.88831 5.3266,-13.11572 0,-5.22662 -1.8078,-9.64697 -5.42191,-13.25635 -3.61407,-3.60864 -8.03756,-5.41333 -13.27197,-5.41333 z m 0.0469,3.36017 c 4.23752,0 7.836,1.49298 10.79697,4.48053 2.98907,2.9563 4.48441,6.56567 4.48441,10.82898 0,4.29382 -1.46252,7.85712 -4.39224,10.68915 -3.08438,3.04926 -6.71411,4.57349 -10.88913,4.57349 -4.17505,0 -7.7735,-1.5094 -10.79541,-4.52661 -3.02188,-3.01953 -4.53284,-6.59692 -4.53284,-10.73602 0,-4.13831 1.52658,-7.74847 4.57971,-10.82898 2.92815,-2.98756 6.51098,-4.48054 10.74853,-4.48054 z"
               id="path6322_1_"
               inkscape:connector-curvature="0" />
            <path
               d="m -176.49548,-52.02087 c 0.74377,-4.69769 4.05161,-7.20862 8.1954,-7.20862 5.96097,0 9.59225,4.32501 9.59225,10.09229 0,5.62738 -3.86411,9.99927 -9.686,9.99927 -4.00473,0 -7.58914,-2.46484 -8.24228,-7.30084 l 4.70319,0 c 0.14062,2.51099 1.77032,3.39459 4.09845,3.39459 2.65317,0 4.37817,-2.4649 4.37817,-6.23291 0,-3.95233 -1.49063,-6.04535 -4.28598,-6.04535 -2.04846,0 -3.8172,0.74457 -4.19064,3.30157 l 1.36874,-0.007 -3.70316,3.7016 -3.7016,-3.7016 1.47346,0.007 z"
               id="path6324_1_"
               inkscape:connector-curvature="0" />
          </g>
        </g>
        <g
           id="g313">
          <circle
             style="fill:#ffffff"
             id="circle315"
             r="10.8064"
             cy="90.224609"
             cx="242.56226" />
          <g
             id="g317">
            <path
               id="path319"
               d="m 245.68994,87.09766 c 0,-0.4165 -0.33789,-0.75342 -0.75391,-0.75342 l -4.77246,0 c -0.41602,0 -0.75391,0.33691 -0.75391,0.75342 l 0,4.77295 1.33105,0 0,5.65234 3.61719,0 0,-5.65234 1.33203,0 0,-4.77295 1e-5,0 z"
               inkscape:connector-curvature="0" />
            <circle
               id="circle321"
               r="1.63232"
               cy="84.083008"
               cx="242.5498" />
          </g>
          <path
             style="clip-rule:evenodd;fill-rule:evenodd"
             id="path323"
             d="m 242.53467,78.31836 c -3.23145,0 -5.96826,1.12744 -8.20752,3.38379 -2.29785,2.33301 -3.44629,5.09521 -3.44629,8.28418 0,3.18897 1.14844,5.93213 3.44629,8.22705 2.29785,2.29443 5.03418,3.44189 8.20752,3.44189 3.21289,0 5.99805,-1.15674 8.35352,-3.47168 2.2207,-2.19678 3.33008,-4.92969 3.33008,-8.19727 0,-3.26758 -1.12891,-6.02881 -3.3877,-8.28418 -2.25879,-2.25634 -5.02442,-3.38378 -8.2959,-3.38378 z m 0.0293,2.09961 c 2.64844,0 4.89746,0.93359 6.74707,2.80078 1.87012,1.84717 2.80469,4.10352 2.80469,6.76758 0,2.68359 -0.91504,4.91113 -2.74609,6.68066 -1.92773,1.90576 -4.19629,2.8584 -6.80566,2.8584 -2.60937,0 -4.8584,-0.94287 -6.74658,-2.82959 -1.88965,-1.88623 -2.8335,-4.12256 -2.8335,-6.70947 0,-2.58643 0.9541,-4.84229 2.8623,-6.76758 1.83057,-1.86719 4.07031,-2.80078 6.71777,-2.80078 z"
             inkscape:connector-curvature="0" />
        </g>
      </g>
    </g>
  </g>
</svg>
